Coordinates
version=1
nRows=8
nColumns=63
inDegrees=yes

Units are S.I. units (second, meters, Newtons, ...)
If the header above contains a line with 'inDegrees', this indicates whether rotational values are in degrees (yes) or radians (no).

endheader
time	pelvis_tilt	pelvis_list	pelvis_rotation	pelvis_tx	pelvis_ty	pelvis_tz	hip_flexion_r	hip_adduction_r	hip_rotation_r	knee_angle_r	knee_angle_r_beta	ankle_angle_r	subtalar_angle_r	mtp_angle_r	hip_flexion_l	hip_adduction_l	hip_rotation_l	knee_angle_l	knee_angle_l_beta	ankle_angle_l	subtalar_angle_l	mtp_angle_l	L5_S1_Flex_Ext	L5_S1_Lat_Bending	L5_S1_axial_rotation	L4_L5_Flex_Ext	L4_L5_Lat_Bending	L4_L5_axial_rotation	L3_L4_Flex_Ext	L3_L4_Lat_Bending	L3_L4_axial_rotation	L2_L3_Flex_Ext	L2_L3_Lat_Bending	L2_L3_axial_rotation	L1_L2_Flex_Ext	L1_L2_Lat_Bending	L1_L2_axial_rotation	L1_T12_Flex_Ext	L1_T12_Lat_Bending	L1_T12_axial_rotation	Abs_r3	Abs_r2	Abs_r1	Abs_t1	Abs_t2	neck_flexion	neck_bending	neck_rotation	arm_flex_r	arm_add_r	arm_rot_r	elbow_flex_r	pro_sup_r	wrist_flex_r	wrist_dev_r	arm_flex_l	arm_add_l	arm_rot_l	elbow_flex_l	pro_sup_l	wrist_flex_l	wrist_dev_l
1.533333	-32.727410	-30.889232	74.960831	0.309823	0.588636	0.375074	96.043986	7.819839	32.250437	110.399451	1.926834	49.868304	-19.375708	0.000000	84.529791	-9.879403	-36.989258	99.770488	1.741324	55.857062	5.741513	0.000000	0.560449	-4.744839	1.383955	1.040809	-6.310636	1.470452	0.920761	-11.536601	1.470452	0.640537	-11.536601	1.210961	0.520433	-9.675675	1.124464	0.320240	-7.349755	1.037966	4.003229	-53.674565	7.697143	0.000000	0.000000	28.399799	13.792391	-43.952424	29.237855	-1.399566	5.754343	124.826275	87.543961	7.739189	-5.602001	44.042983	-27.927221	70.598370	61.924571	89.395062	11.487680	28.986200
1.550000	-33.222244	-30.736436	74.084448	0.308126	0.586158	0.378765	96.635070	8.626209	32.857289	110.838219	1.934492	49.631220	-19.361685	0.000000	84.724588	-10.200336	-37.592464	99.663853	1.739462	56.190962	5.688528	0.000000	0.559424	-4.764785	1.460707	1.038906	-6.337164	1.552001	0.919078	-11.585097	1.552001	0.639366	-11.585097	1.278119	0.519481	-9.716349	1.186824	0.319655	-7.380651	1.095530	3.995910	-53.900197	8.124014	0.000000	0.000000	28.398091	13.525639	-43.900712	30.092464	-2.221955	7.606490	125.778224	88.216068	2.101040	-8.143988	44.648426	-27.453117	70.451909	62.293531	89.407103	12.856512	29.871430
1.566667	-33.621051	-30.598946	73.207657	0.306525	0.584165	0.382761	97.213068	9.439672	33.335048	111.170732	1.940295	49.369782	-19.350884	0.000000	84.942821	-10.564337	-38.092298	99.498206	1.736571	56.360430	5.594171	0.000000	0.562842	-4.778369	1.528201	1.045254	-6.355231	1.623713	0.924694	-11.618126	1.623713	0.643272	-11.618126	1.337176	0.522655	-9.744050	1.241663	0.321608	-7.401693	1.146151	4.020326	-54.053864	8.499395	0.000000	0.000000	28.396888	13.397864	-43.857477	30.998650	-3.012812	9.355869	126.557842	88.803188	-3.457271	-10.561933	45.224000	-27.030929	70.203851	62.633098	89.445567	14.127380	30.614980
1.583333	-33.859791	-30.490497	72.357872	0.305107	0.582661	0.387073	97.770492	10.282112	33.621963	111.383211	1.944004	49.068683	-19.345933	0.000000	85.207546	-11.012204	-38.424624	99.303898	1.733180	56.380092	5.493077	0.000000	0.573192	-4.780495	1.583535	1.064475	-6.358059	1.682506	0.941698	-11.623296	1.682506	0.655102	-11.623296	1.385593	0.532266	-9.748386	1.286622	0.327522	-7.404987	1.187651	4.094256	-54.077919	8.807147	0.000000	0.000000	28.396539	13.433866	-43.825651	32.011238	-3.832135	11.000276	127.097757	89.268914	-8.979169	-12.806533	45.802302	-26.657317	70.009125	62.855491	89.477124	15.080666	31.033179
1.600000	-33.864340	-30.401574	71.577719	0.304004	0.581681	0.391683	98.256261	11.166433	33.659988	111.452044	1.945205	48.737957	-19.347649	0.000000	85.519847	-11.577045	-38.526569	99.116054	1.729901	56.257557	5.402586	0.000000	0.586872	-4.765959	1.626495	1.089879	-6.338725	1.728151	0.964171	-11.587952	1.728151	0.670736	-11.587952	1.423183	0.544969	-9.718743	1.321528	0.335338	-7.382470	1.219872	4.191965	-53.913476	9.046080	0.000000	0.000000	28.397290	13.631219	-43.811628	33.180319	-4.722719	12.499265	127.340044	89.542834	-14.248791	-14.791273	46.445059	-26.317266	69.988560	62.855947	89.537106	15.716480	31.095467
1.616667	-33.640999	-30.349956	70.896188	0.303301	0.581214	0.396508	98.657787	12.076137	33.457328	111.375230	1.943864	48.356437	-19.355565	0.000000	85.878796	-12.259686	-38.404683	98.945632	1.726927	56.012516	5.414961	0.000000	0.607403	-4.736516	1.652347	1.128007	-6.299567	1.755619	0.997902	-11.516365	1.755619	0.694200	-11.516365	1.445804	0.564034	-9.658704	1.342532	0.347070	-7.336864	1.239261	4.338616	-53.580418	9.189861	0.000000	0.000000	28.398311	13.970420	-43.815055	34.511882	-5.709250	13.851244	127.267964	89.625475	-19.129332	-16.482370	47.170888	-26.010158	70.258933	62.609041	89.569941	15.898328	30.779598
1.633333	-33.153271	-30.327569	70.332837	0.303116	0.581268	0.401484	98.929368	13.027143	32.996420	111.137992	1.939724	47.913859	-19.370681	0.000000	86.267017	-13.081044	-38.033442	98.812048	1.724596	55.636644	5.527034	0.000000	0.632508	-4.689717	1.667551	1.174630	-6.237323	1.771773	1.039147	-11.402577	1.771773	0.722893	-11.402577	1.459107	0.587347	-9.563270	1.354885	0.361415	-7.264371	1.250663	4.517940	-53.051013	9.274417	0.000000	0.000000	28.398955	14.458752	-43.838811	35.996433	-6.808740	14.977954	126.883156	89.664976	-23.262740	-18.034684	48.090169	-25.687418	71.100095	62.058192	89.514795	15.443503	30.021045
1.650000	-32.431023	-30.344600	69.924020	0.303433	0.581821	0.406481	99.070668	13.964450	32.308791	110.746731	1.932895	47.414307	-19.392351	0.000000	86.682604	-13.975913	-37.419298	98.714700	1.722897	55.112031	5.731876	0.000000	0.662401	-4.628260	1.664650	1.230145	-6.155586	1.768690	1.088258	-11.253151	1.768690	0.757058	-11.253151	1.456568	0.615105	-9.437948	1.352528	0.378496	-7.169175	1.248487	4.731463	-52.355802	9.258282	0.000000	0.000000	28.398596	15.077741	-43.878761	37.617745	-7.985531	15.839643	126.226333	89.547015	-26.358565	-19.267630	49.169279	-25.351099	72.467213	61.210341	89.486834	14.339628	28.834491
